# xmcd
# Track frame offsets:
# 150
# 13424
# 30900
# 49946
# 69889
# 85414
# 102730
# 116831
# 133332
#
# Disc length: 1973 seconds
# Revision: 0
# Processed by: cddbd v1.5.1PL0 Copyright (c) Steve Scherf et al.
# Submitted via: VisiTrax 2.9.10.228 - For more info visit www.synapsa.com
#
DISCID=7f07b309
DTITLE=Various Artist - Hits Monthly Nashville  PHN0107
DYEAR=1900
DGENRE=Karaoke
TTITLE0=Urban, Keith - Where The Blacktop Ends
TTITLE1=Messina, Jo Dee - Downtime
TTITLE2=Lonestar - I'm Already There
TTITLE3=SheDaisy - Still Holding Out For You
TTITLE4=Gilman, Billy - There's A Hero
TTITLE5=Worley, Darryl - Second Wind
TTITLE6=Lawrence, Tracy - Unforgiven
TTITLE7=McCann, Lila - Come A Little Closer
TTITLE8=Alabama - Will You Marry Me
EXTD=
EXTT0=
EXTT1=
EXTT2=
EXTT3=
EXTT4=
EXTT5=
EXTT6=
EXTT7=
EXTT8=
PLAYORDER=
